<svg width="360" height="210" viewBox="0 0 360 210" fill="none" xmlns="http://www.w3.org/2000/svg">
  <defs><filter id="s" x="-20%" y="-20%" width="140%" height="140%"><feDropShadow dx="0" dy="14" stdDeviation="14" flood-color="#2F7CFF" flood-opacity=".18"/></filter><linearGradient id="b" x1="108" y1="122" x2="226" y2="41" gradientUnits="userSpaceOnUse"><stop stop-color="#2F7CFF"/><stop offset="1" stop-color="#6EA8FF"/></linearGradient></defs>
  <path d="M178 105m-78 0a78 48 0 1 0 156 0a78 48 0 1 0 -156 0" stroke="#2F7CFF" stroke-width="2" stroke-dasharray="6 9" opacity=".35"/>
  <path d="M178 105m-58 0a58 82 0 1 0 116 0a58 82 0 1 0 -116 0" stroke="#2F7CFF" stroke-width="1.5" stroke-dasharray="4 8" opacity=".25"/>
  <g filter="url(#s)"><circle cx="178" cy="105" r="36" fill="url(#b)"/><path d="M164 113c3-8 25-8 28 0M170 98a8 8 0 1 0 0-1M186 98a8 8 0 1 0 0-1" stroke="white" stroke-width="4" stroke-linecap="round"/></g>
  <g font-family="Arial, sans-serif" font-size="16" font-weight="700" fill="#0B2F66">
    <g filter="url(#s)"><circle cx="96" cy="70" r="22" fill="white"/><circle cx="96" cy="62" r="8" fill="#FFD0B0"/><path d="M81 88c4-19 26-19 30 0" fill="#FF6A00" opacity=".75"/></g>
    <g filter="url(#s)"><circle cx="242" cy="70" r="22" fill="white"/><circle cx="242" cy="62" r="8" fill="#FFD0B0"/><path d="M227 88c4-19 26-19 30 0" fill="#FF6A00" opacity=".75"/></g>
    <g filter="url(#s)"><circle cx="98" cy="144" r="22" fill="white"/><circle cx="98" cy="136" r="8" fill="#FFD0B0"/><path d="M83 162c4-19 26-19 30 0" fill="#0B2F66" opacity=".75"/></g>
    <g filter="url(#s)"><circle cx="244" cy="144" r="22" fill="white"/><circle cx="244" cy="136" r="8" fill="#FFD0B0"/><path d="M229 162c4-19 26-19 30 0" fill="#0B2F66" opacity=".75"/></g>
    <g filter="url(#s)"><circle cx="178" cy="178" r="20" fill="white"/><circle cx="178" cy="171" r="7" fill="#FFD0B0"/><path d="M164 188c4-16 24-16 28 0" fill="#20A66A" opacity=".8"/></g>
  </g>
  <circle cx="75" cy="114" r="4" fill="#2F7CFF" opacity=".8"/><circle cx="286" cy="112" r="4" fill="#20A66A" opacity=".8"/><circle cx="178" cy="34" r="3" fill="#2F7CFF" opacity=".5"/>
</svg>
