<svg width="360" height="210" viewBox="0 0 360 210" fill="none" xmlns="http://www.w3.org/2000/svg">
  <defs><filter id="s" x="-30%" y="-30%" width="160%" height="160%"><feDropShadow dx="0" dy="18" stdDeviation="18" flood-color="#8B5CF6" flood-opacity=".22"/></filter><linearGradient id="g" x1="105" y1="170" x2="255" y2="42" gradientUnits="userSpaceOnUse"><stop stop-color="#6D3EF7"/><stop offset="1" stop-color="#B68CFF"/></linearGradient></defs>
  <g filter="url(#s)">
    <circle cx="180" cy="106" r="72" stroke="#EBDDFC" stroke-width="22"/>
    <path d="M180 34a72 72 0 1 1-66 101" stroke="url(#g)" stroke-width="22" stroke-linecap="round"/>
    <circle cx="180" cy="106" r="52" fill="white"/>
  </g>
  <text x="178" y="115" text-anchor="middle" font-size="46" font-weight="900" fill="#1D1AA6" font-family="Arial, sans-serif">78</text>
  <text x="228" y="114" font-size="20" font-weight="800" fill="#1D1AA6" font-family="Arial, sans-serif">%</text>
  <path d="M270 54L274 64L284 68L274 72L270 82L266 72L256 68L266 64L270 54Z" fill="#C9A9FF" opacity=".55"/>
  <path d="M98 140L102 148L110 152L102 156L98 164L94 156L86 152L94 148L98 140Z" fill="#C9A9FF" opacity=".35"/>
</svg>
