<svg width="360" height="210" viewBox="0 0 360 210" fill="none" xmlns="http://www.w3.org/2000/svg">
  <defs><linearGradient id="area" x1="75" y1="155" x2="310" y2="78" gradientUnits="userSpaceOnUse"><stop stop-color="#DDF8EA"/><stop offset="1" stop-color="#DDF8EA" stop-opacity="0"/></linearGradient><filter id="s"><feDropShadow dx="0" dy="12" stdDeviation="12" flood-color="#20A66A" flood-opacity=".16"/></filter></defs>
  <path d="M70 160C98 135 110 142 134 124C160 104 181 126 203 100C229 70 246 93 272 64C290 44 304 58 318 34" stroke="#20A66A" stroke-width="5" stroke-linecap="round"/>
  <path d="M70 160C98 135 110 142 134 124C160 104 181 126 203 100C229 70 246 93 272 64C290 44 304 58 318 34V178H70V160Z" fill="url(#area)"/>
  <g opacity=".18" stroke="#20A66A"><path d="M80 178V46"/><path d="M130 178V46"/><path d="M180 178V46"/><path d="M230 178V46"/><path d="M280 178V46"/></g>
  <g filter="url(#s)"><rect x="252" y="16" width="54" height="46" rx="12" fill="white"/><text x="279" y="46" text-anchor="middle" font-size="24" font-weight="800" fill="#20A66A" font-family="Arial, sans-serif">8.7</text></g>
  <circle cx="318" cy="34" r="7" fill="#20A66A"/>
  <circle cx="318" cy="34" r="16" stroke="#20A66A" opacity=".16" stroke-width="6"/>
  <path d="M310 24L314 30L325 20" stroke="white" stroke-width="3" stroke-linecap="round" stroke-linejoin="round"/>
</svg>
