<svg width="360" height="210" viewBox="0 0 360 210" fill="none" xmlns="http://www.w3.org/2000/svg">
  <defs><filter id="s" x="-20%" y="-20%" width="140%" height="140%"><feDropShadow dx="0" dy="12" stdDeviation="14" flood-color="#FF6A00" flood-opacity=".16"/></filter></defs>
  <g filter="url(#s)"><path d="M62 43h176c17 0 30 13 30 30v8c0 17-13 30-30 30H96l-29 22 7-24H62c-17 0-30-13-30-30V73c0-17 13-30 30-30Z" fill="white"/><text x="62" y="82" font-size="17" font-weight="700" fill="#0B2F66" font-family="Arial, sans-serif">Em chưa hiểu bài này ạ 🥺</text><text x="62" y="101" font-size="12" fill="#8A98AA" font-family="Arial, sans-serif">10:30</text></g>
  <g filter="url(#s)"><path d="M126 118h172c16 0 29 13 29 29v6c0 16-13 29-29 29H160l-27 18 6-20h-13c-16 0-29-13-29-29v-4c0-16 13-29 29-29Z" fill="#FFF0E2"/><text x="143" y="154" font-size="16" font-weight="700" fill="#0B2F66" font-family="Arial, sans-serif">Thầy giải thích giúp em với ạ!</text><text x="143" y="173" font-size="12" fill="#8A98AA" font-family="Arial, sans-serif">10:31</text></g>
  <g filter="url(#s)"><path d="M62 145h90c15 0 27 12 27 27s-12 27-27 27H91l-23 14 5-16H62c-15 0-27-12-27-27s12-25 27-25Z" fill="white"/><circle cx="83" cy="171" r="5" fill="#C5BDB5"/><circle cx="107" cy="171" r="5" fill="#C5BDB5"/><circle cx="131" cy="171" r="5" fill="#C5BDB5"/></g>
  <circle cx="170" cy="142" r="15" fill="#FF6A00"/><text x="170" y="148" text-anchor="middle" font-size="15" font-weight="900" fill="white" font-family="Arial, sans-serif">3</text>
</svg>
