<svg width="360" height="210" viewBox="0 0 360 210" fill="none" xmlns="http://www.w3.org/2000/svg">
  <defs>
    <filter id="s" x="-20%" y="-20%" width="140%" height="140%"><feDropShadow dx="0" dy="12" stdDeviation="12" flood-color="#FF6A00" flood-opacity=".16"/></filter>
    <linearGradient id="g" x1="35" y1="165" x2="290" y2="20" gradientUnits="userSpaceOnUse"><stop stop-color="#FFF7ED"/><stop offset="1" stop-color="#FFE7D0"/></linearGradient>
  </defs>
  <rect width="360" height="210" fill="transparent"/>
  <g filter="url(#s)">
    <rect x="24" y="42" width="68" height="78" rx="14" fill="white"/>
    <rect x="40" y="78" width="30" height="6" rx="3" fill="#FF6A00" opacity=".25"/>
    <text x="58" y="75" text-anchor="middle" font-size="24" font-weight="800" fill="#FF6A00" font-family="Arial, sans-serif">01</text>
  </g>
  <g filter="url(#s)">
    <rect x="112" y="34" width="52" height="58" rx="12" fill="white"/>
    <rect x="126" y="63" width="22" height="4" rx="2" fill="#2F7CFF" opacity=".25"/>
    <text x="138" y="60" text-anchor="middle" font-size="18" font-weight="800" fill="#2F7CFF" font-family="Arial, sans-serif">02</text>
  </g>
  <g filter="url(#s)">
    <rect x="174" y="22" width="52" height="58" rx="12" fill="white"/>
    <rect x="188" y="51" width="22" height="4" rx="2" fill="#20A66A" opacity=".25"/>
    <text x="200" y="48" text-anchor="middle" font-size="18" font-weight="800" fill="#20A66A" font-family="Arial, sans-serif">03</text>
  </g>
  <g filter="url(#s)">
    <rect x="234" y="14" width="52" height="58" rx="12" fill="white"/>
    <path d="M250 42H272M250 52H268" stroke="#8B5CF6" stroke-width="3" stroke-linecap="round" opacity=".55"/>
    <text x="260" y="35" text-anchor="middle" font-size="18" font-weight="800" fill="#8B5CF6" font-family="Arial, sans-serif">04</text>
  </g>
  <path d="M105 134C143 177 223 166 277 111" stroke="#FF6A00" stroke-width="2" stroke-linecap="round" stroke-dasharray="7 8" opacity=".45"/>
  <path d="M280 108L304 88L296 126L283 116L270 127L280 108Z" fill="#FF6A00"/>
  <path d="M280 108L304 88L296 126L283 116L270 127L280 108Z" stroke="#D94E00" stroke-width="1" opacity=".25"/>
  <circle cx="308" cy="82" r="4" fill="#FF6A00" opacity=".5"/>
  <path d="M318 45L322 55L332 59L322 63L318 73L314 63L304 59L314 55L318 45Z" fill="#FFD7B4" opacity=".8"/>
</svg>
